<svg id="Layer_1" data-name="Layer 1" xmlns="http://www.w3.org/2000/svg" xmlns:xlink="http://www.w3.org/1999/xlink" viewBox="0 0 571.15 107.69"><defs><style>.cls-1,.cls-17,.cls-18{fill:none;}.cls-2{fill:url(#linear-gradient);}.cls-3{fill:url(#linear-gradient-2);}.cls-4{fill:url(#linear-gradient-3);}.cls-5{fill:url(#linear-gradient-4);}.cls-6{fill:url(#linear-gradient-5);}.cls-7{fill:url(#linear-gradient-6);}.cls-8{fill:url(#linear-gradient-7);}.cls-9{fill:url(#linear-gradient-8);}.cls-10{fill:url(#linear-gradient-9);}.cls-11{fill:url(#linear-gradient-10);}.cls-12{fill:url(#linear-gradient-11);}.cls-13{fill:url(#linear-gradient-12);}.cls-14{fill:url(#linear-gradient-13);}.cls-15{fill:url(#linear-gradient-14);}.cls-16{fill:url(#linear-gradient-15);}.cls-17,.cls-18{stroke-width:0.55px;}.cls-17{stroke:url(#linear-gradient-16);}.cls-18{stroke:url(#linear-gradient-17);}.cls-19{fill:url(#linear-gradient-18);}</style><linearGradient id="linear-gradient" x1="201.99" y1="54.17" x2="213.89" y2="54.17" gradientUnits="userSpaceOnUse"><stop offset="0" stop-color="#868cff"/><stop offset="1" stop-color="#4318ff"/></linearGradient><linearGradient id="linear-gradient-2" x1="219.36" y1="53.97" x2="236.56" y2="53.97" gradientUnits="userSpaceOnUse"><stop offset="0.07" stop-color="#4318ff"/><stop offset="0.32" stop-color="#563aff"/><stop offset="0.78" stop-color="#7975ff"/><stop offset="1" stop-color="#868cff"/></linearGradient><linearGradient id="linear-gradient-3" x1="243.03" y1="53.95" x2="265.76" y2="53.95" gradientUnits="userSpaceOnUse"><stop offset="0" stop-color="#868cff"/><stop offset="0.54" stop-color="#4318ff"/></linearGradient><linearGradient id="linear-gradient-4" x1="269.74" y1="53.97" x2="284.9" y2="53.97" gradientUnits="userSpaceOnUse"><stop offset="0" stop-color="#868cff"/><stop offset="0.97" stop-color="#4318ff"/></linearGradient><linearGradient id="linear-gradient-5" x1="290.83" y1="53.97" x2="299.55" y2="53.97" gradientUnits="userSpaceOnUse"><stop offset="0" stop-color="#868cff"/><stop offset="0.91" stop-color="#4318ff"/></linearGradient><linearGradient id="linear-gradient-6" x1="303.4" y1="53.97" x2="314.52" y2="53.97" gradientUnits="userSpaceOnUse"><stop offset="0" stop-color="#868cff"/><stop offset="0.74" stop-color="#4318ff"/></linearGradient><linearGradient id="linear-gradient-7" x1="319.17" y1="53.97" x2="333.61" y2="53.97" gradientUnits="userSpaceOnUse"><stop offset="0" stop-color="#868cff"/><stop offset="0.83" stop-color="#4318ff"/></linearGradient><linearGradient id="linear-gradient-8" x1="203.93" y1="67.09" x2="204.24" y2="67.09" gradientTransform="matrix(1, 0, 0, -1, 0, 109.73)" gradientUnits="userSpaceOnUse"><stop offset="0" stop-color="#26a4ff"/><stop offset="1" stop-color="#0d9aff"/></linearGradient><linearGradient id="linear-gradient-9" x1="177.88" y1="63.26" x2="178.69" y2="63.24" xlink:href="#linear-gradient-8"/><linearGradient id="linear-gradient-10" x1="173.7" y1="50.89" x2="174.5" y2="50.87" xlink:href="#linear-gradient-8"/><linearGradient id="linear-gradient-11" x1="197.74" y1="47.5" x2="198.54" y2="47.48" xlink:href="#linear-gradient-8"/><linearGradient id="linear-gradient-12" x1="178.96" y1="54.38" x2="179.27" y2="54.38" xlink:href="#linear-gradient-8"/><linearGradient id="linear-gradient-13" x1="184.87" y1="67.62" x2="185.36" y2="67.61" xlink:href="#linear-gradient-8"/><linearGradient id="linear-gradient-14" x1="176.77" y1="57.43" x2="174.34" y2="57.02" xlink:href="#linear-gradient-8"/><linearGradient id="linear-gradient-15" x1="175.24" y1="68.27" x2="200.18" y2="44.29" gradientTransform="matrix(1, 0, 0, -1, 0, 109.73)" xlink:href="#linear-gradient"/><linearGradient id="linear-gradient-16" x1="186.94" y1="48.74" x2="185.87" y2="51.75" gradientTransform="matrix(1, 0, 0, -1, 0, 109.73)" gradientUnits="userSpaceOnUse"><stop offset="0" stop-color="#3f5fff"/><stop offset="1" stop-color="#3f5fff" stop-opacity="0"/></linearGradient><linearGradient id="linear-gradient-17" x1="186.94" y1="48.74" x2="185.87" y2="51.75" gradientTransform="matrix(1, 0, 0, -1, 0, 109.73)" gradientUnits="userSpaceOnUse"><stop offset="0" stop-color="#1da0ff"/><stop offset="1" stop-color="#199fff" stop-opacity="0.13"/></linearGradient><linearGradient id="linear-gradient-18" x1="198.29" y1="63.08" x2="194.91" y2="63.48" xlink:href="#linear-gradient-8"/></defs><rect class="cls-1" width="571.15" height="107.69"/><rect class="cls-1" x="202.96" y="38.96" width="144.3" height="32.47"/><path class="cls-2" d="M213.74,58V43h3.95v14.9a7.3,7.3,0,0,1-2.13,5.48,7.94,7.94,0,0,1-5.73,2.06,8.23,8.23,0,0,1-5.7-1.91,6.59,6.59,0,0,1-2.14-5.2,8.42,8.42,0,0,1,.1-1.43h4a9.2,9.2,0,0,0-.1,1.43,4.65,4.65,0,0,0,.35,1.69,3,3,0,0,0,1.27,1.48,4.13,4.13,0,0,0,2.24.59,3.74,3.74,0,0,0,2.92-1.12A4.28,4.28,0,0,0,213.74,58Z"/><path class="cls-3" d="M223.54,65h-4.18l9-22h4.21l9,22h-4.31l-1.66-4.26H225.2Zm6.89-17.39h-.07l-3.85,9.72h7.77Z"/><path class="cls-4" d="M243,53.94a12.15,12.15,0,0,1,.85-4.58,10.45,10.45,0,0,1,2.42-3.66,10.85,10.85,0,0,1,3.7-2.38,12.56,12.56,0,0,1,4.62-.84A11.81,11.81,0,0,1,262,44.8,9.71,9.71,0,0,1,265.76,51h-4.22a6.1,6.1,0,0,0-2.43-3.6,7.56,7.56,0,0,0-4.49-1.31,7,7,0,0,0-5.42,2.15,8,8,0,0,0-2,5.71,8.08,8.08,0,0,0,2,5.72,7,7,0,0,0,5.42,2.16,7.56,7.56,0,0,0,4.49-1.3,6.1,6.1,0,0,0,2.43-3.6h4.22A9.74,9.74,0,0,1,262,63.11a11.87,11.87,0,0,1-7.37,2.31,12.56,12.56,0,0,1-4.62-.84,11,11,0,0,1-3.7-2.37,10.63,10.63,0,0,1-2.42-3.66A12.27,12.27,0,0,1,243,53.94Z"/><path class="cls-5" d="M290.08,65h-4.93l-7.41-10.06-4.05,4V65h-3.95V43h3.95V54.18q2-1.95,10.74-11.23h5.19l-9.14,9.15Z"/><path class="cls-6" d="M290.83,46.33V43h8.72v3.38h-2.38V61.6h2.38V65h-8.72V61.6h2.39V46.33Z"/><path class="cls-7" d="M307.35,65h-4V43h15.15v3.47h-11.2v5.65H318v3.48H307.35Z"/><path class="cls-8" d="M335.82,43h4.61l-8.65,14.31V65h-4V57.26L319.17,43h4.57l6,10.43h.07Z"/><path class="cls-9" d="M204.08,42.81a.16.16,0,0,0,.15-.16.16.16,0,1,0-.31,0A.16.16,0,0,0,204.08,42.81Z"/><path class="cls-10" d="M178.26,46.91a.43.43,0,0,0,0-.85.43.43,0,0,0,0,.85Z"/><path class="cls-11" d="M174.08,59.27a.42.42,0,0,0,0-.84.42.42,0,0,0,0,.84Z"/><path class="cls-12" d="M198.12,62.67a.43.43,0,1,0-.41-.42A.42.42,0,0,0,198.12,62.67Z"/><path class="cls-13" d="M179.1,55.52a.16.16,0,0,0,.16-.16.16.16,0,1,0-.31,0A.16.16,0,0,0,179.1,55.52Z"/><path class="cls-14" d="M185.1,42.38a.26.26,0,0,0,.25-.26.25.25,0,1,0-.49,0A.25.25,0,0,0,185.1,42.38Z"/><path class="cls-15" d="M175.8,53.77a.14.14,0,0,1-.17-.12c-.23-.75-.34-.85-1.07-.82a.17.17,0,0,1-.17-.14.18.18,0,0,1,.12-.19c.7-.21.77-.32.79-1.11a.17.17,0,0,1,.13-.17.16.16,0,0,1,.18.12c.22.76.34.85,1.07.82a.18.18,0,0,1,.17.15.16.16,0,0,1-.12.18c-.7.22-.77.32-.79,1.11A.16.16,0,0,1,175.8,53.77Z"/><path class="cls-16" d="M189.21,47.06a.57.57,0,0,0,0,1,6.37,6.37,0,0,1,3.64,3.79.53.53,0,0,0,1,0,6.37,6.37,0,0,1,3.64-3.79.56.56,0,0,0,0-1,6.37,6.37,0,0,1-3.64-3.79.53.53,0,0,0-1,0A6.37,6.37,0,0,1,189.21,47.06Zm-5.74-.58a.74.74,0,0,0-1.36,0,16.38,16.38,0,0,1-7.82,8.13.76.76,0,0,0-.43.71.77.77,0,0,0,.43.71,16.36,16.36,0,0,1,7.82,8.12.73.73,0,0,0,1.35,0A16.38,16.38,0,0,1,191.28,56a.78.78,0,0,0,.44-.71.76.76,0,0,0-.44-.7A16.32,16.32,0,0,1,183.47,46.48Zm9.38,12.39a6.37,6.37,0,0,1-3.64,3.79.57.57,0,0,0,0,1.05,6.37,6.37,0,0,1,3.64,3.79.53.53,0,0,0,1,0,6.37,6.37,0,0,1,3.64-3.79.56.56,0,0,0,0-1.05,6.37,6.37,0,0,1-3.64-3.79.53.53,0,0,0-1,0Z"/><path class="cls-17" d="M185.55,57c-7.17,2.59-12.63,5.72-12.21,7s6.58.2,13.74-2.39,12.63-5.71,12.21-7S192.71,54.37,185.55,57Z"/><path class="cls-18" d="M185.55,57c-7.17,2.59-12.63,5.72-12.21,7s6.58.2,13.74-2.39,12.63-5.71,12.21-7S192.71,54.37,185.55,57Z"/><path class="cls-19" d="M196.45,48.23a.24.24,0,0,1-.19-.24c0-1.08-.12-1.25-1.09-1.52a.23.23,0,0,1-.17-.25.22.22,0,0,1,.23-.2c1,0,1.14-.11,1.46-1.14a.22.22,0,0,1,.24-.17.23.23,0,0,1,.2.23c0,1.09.12,1.26,1.08,1.52a.24.24,0,0,1,.18.26.24.24,0,0,1-.24.2c-1,0-1.13.1-1.45,1.14A.23.23,0,0,1,196.45,48.23Z"/></svg>